<svg width="15" height="16" viewBox="0 0 15 16" fill="none" xmlns="http://www.w3.org/2000/svg">
<path d="M12.0187 8.45511C12.0115 7.14416 12.6045 6.15469 13.8047 5.42599C13.1332 4.4651 12.1187 3.93643 10.7792 3.83284C9.51108 3.73282 8.12511 4.57226 7.61787 4.57226C7.08206 4.57226 5.85327 3.86856 4.88881 3.86856C2.89559 3.90071 0.777344 5.45814 0.777344 8.62657C0.777344 9.56245 0.948803 10.5293 1.29172 11.5271C1.74895 12.838 3.39925 16.0529 5.12099 15.9993C6.02115 15.9779 6.65698 15.3599 7.82863 15.3599C8.96455 15.3599 9.55394 15.9993 10.5577 15.9993C12.2937 15.9743 13.7869 13.0524 14.2226 11.7379C11.8937 10.6412 12.0187 8.52298 12.0187 8.45511ZM9.99688 2.58976C10.9721 1.4324 10.8828 0.37864 10.8542 0C9.99331 0.0500091 8.9967 0.585821 8.42873 1.24666C7.80362 1.95393 7.4357 2.82909 7.51428 3.81498C8.4466 3.88642 9.29675 3.40776 9.99688 2.58976Z" fill="black"/>
</svg>
