<svg width="16" height="16" viewBox="0 0 16 16" fill="none" xmlns="http://www.w3.org/2000/svg">
<g clip-path="url(#clip0_4442_4340)">
<path d="M11.8751 8C11.8757 8.91189 11.5545 9.79475 10.968 10.493C10.3816 11.1913 9.56746 11.6602 8.66917 11.8171C7.77088 11.974 6.84603 11.8089 6.05755 11.3508C5.26907 10.8927 4.66756 10.171 4.35898 9.31295L2.14258 11.086C2.83175 12.3961 3.94001 13.4375 5.2904 14.0439C6.64078 14.6503 8.1554 14.7868 9.59243 14.4315C11.0295 14.0762 12.306 13.2497 13.2182 12.0839C14.1305 10.9181 14.6258 9.48029 14.6251 8" fill="#00AC47"/>
<path d="M11.8748 8C11.8743 8.6165 11.7265 9.22396 11.4437 9.77177C11.1609 10.3196 10.7513 10.7919 10.249 11.1494L12.4402 12.9023C13.1273 12.2837 13.6768 11.5276 14.0531 10.6832C14.4295 9.83866 14.6242 8.92455 14.6248 8" fill="#4285F4"/>
<path d="M4.125 8.00011C4.12596 7.55219 4.2051 7.10787 4.35885 6.68716L2.14245 4.91406C1.63849 5.86465 1.375 6.9242 1.375 8.00011C1.375 9.07603 1.63849 10.1356 2.14245 11.0862L4.35885 9.31306C4.2051 8.89235 4.12596 8.44804 4.125 8.00011Z" fill="#FFBA00"/>
<path d="M8.00013 4.125C8.82006 4.12523 9.6185 4.38726 10.2791 4.8729L12.3091 2.97825C11.5556 2.32853 10.665 1.85738 9.70389 1.59997C8.74278 1.34255 7.73595 1.30551 6.75852 1.49161C5.78109 1.67771 4.85832 2.08215 4.05905 2.67474C3.25978 3.26733 2.60466 4.03278 2.14258 4.91395L4.35898 6.68705C4.62929 5.93774 5.12379 5.28984 5.77525 4.83145C6.42672 4.37305 7.20355 4.12639 8.00013 4.125Z" fill="#EA4435"/>
<path d="M14.625 7.5V8L13.5 9.75H8.25V7H14.125C14.2576 7 14.3848 7.05268 14.4786 7.14645C14.5723 7.24021 14.625 7.36739 14.625 7.5Z" fill="#4285F4"/>
</g>
<defs>
<clipPath id="clip0_4442_4340">
<rect width="16" height="16" fill="white"/>
</clipPath>
</defs>
</svg>
