<svg width="15" height="10" viewBox="0 0 15 10" fill="none" xmlns="http://www.w3.org/2000/svg">
<path d="M14.0201 1.63008C14.3201 2.68008 14.3201 4.93008 14.3201 4.93008C14.3201 4.93008 14.3201 7.15508 14.0201 8.23008C13.8701 8.83008 13.3951 9.28008 12.8201 9.43008C11.7451 9.70508 7.49512 9.70508 7.49512 9.70508C7.49512 9.70508 3.22012 9.70508 2.14512 9.43008C1.57012 9.28008 1.09512 8.83008 0.945117 8.23008C0.645117 7.15508 0.645117 4.93008 0.645117 4.93008C0.645117 4.93008 0.645117 2.68008 0.945117 1.63008C1.09512 1.03008 1.57012 0.555078 2.14512 0.405078C3.22012 0.105078 7.49512 0.105078 7.49512 0.105078C7.49512 0.105078 11.7451 0.105078 12.8201 0.405078C13.3951 0.555078 13.8701 1.03008 14.0201 1.63008ZM6.09512 6.95508L9.64512 4.93008L6.09512 2.90508V6.95508Z" fill="#FAFAFA"/>
</svg>
