<svg width="110" height="35" viewBox="0 0 110 35" fill="none" xmlns="http://www.w3.org/2000/svg">
<g clip-path="url(#clip0_4442_3382)">
<g clip-path="url(#clip1_4442_3382)">
<g clip-path="url(#clip2_4442_3382)">
<path d="M105.899 34.11H3.5692C1.69315 34.11 0.158203 32.5751 0.158203 30.699V3.411C0.158203 1.53495 1.69315 0 3.5692 0H105.899C107.775 0 109.31 1.53495 109.31 3.411V30.699C109.31 32.5751 107.775 34.11 105.899 34.11Z" fill="black"/>
<path d="M23.1826 16.8842C23.1826 14.2407 25.3998 12.9616 25.485 12.8763C24.2059 11.0855 22.3299 10.8297 21.6477 10.7444C20.0274 10.5739 18.4072 11.6824 17.6397 11.6824C16.787 11.6824 15.5079 10.7444 14.1435 10.7444C12.3527 10.7444 10.7325 11.7677 9.79443 13.3879C7.91838 16.6284 9.28278 21.4038 11.0736 24.0473C12.0116 25.3264 13.0349 26.7761 14.3993 26.6908C15.7637 26.6055 16.2753 25.8381 17.8956 25.8381C19.5158 25.8381 19.9422 26.6908 21.3918 26.6908C22.8415 26.6908 23.7795 25.4117 24.6323 24.1326C25.6556 22.6829 26.082 21.2332 26.082 21.148C25.9967 21.0627 23.1826 20.0394 23.1826 16.8842Z" fill="#FAFAFA"/>
<path d="M20.5388 9.03893C21.221 8.10091 21.7326 6.90705 21.6474 5.62793C20.6241 5.7132 19.2597 6.31013 18.5775 7.24815C17.8953 8.01563 17.2983 9.29475 17.4689 10.4886C18.5775 10.5739 19.7713 9.89168 20.5388 9.03893Z" fill="#FAFAFA"/>
<path d="M42.6252 26.521H40.7492L39.7259 23.2805H36.1443L35.2063 26.521H33.4155L36.9971 15.5205H39.2142L42.6252 26.521ZM39.3848 21.9161L38.4468 19.0168C38.3615 18.761 38.1909 17.9935 37.8498 16.9702C37.7646 17.3966 37.594 18.164 37.3382 19.0168L36.4002 21.9161H39.3848Z" fill="#FAFAFA"/>
<path d="M51.7495 22.5128C51.7495 23.8772 51.4084 24.9005 50.6409 25.7533C49.9587 26.4355 49.1912 26.7766 48.1679 26.7766C47.1446 26.7766 46.3771 26.4355 45.9508 25.668V29.8465H44.16V21.319C44.16 20.4662 44.16 19.6135 44.0747 18.6754H45.6097L45.6949 19.9546C46.2919 19.0165 47.1446 18.5049 48.3385 18.5049C49.2765 18.5049 50.044 18.846 50.6409 19.6135C51.4084 20.2957 51.7495 21.2337 51.7495 22.5128ZM49.9587 22.5128C49.9587 21.7453 49.7881 21.0631 49.447 20.6368C49.1059 20.1251 48.5943 19.8693 47.9121 19.8693C47.4857 19.8693 47.0593 20.0398 46.7182 20.2957C46.3771 20.5515 46.1213 20.9779 46.036 21.4042C45.9508 21.6601 45.9508 21.8306 45.9508 21.9159V23.2803C45.9508 23.8772 46.1213 24.3036 46.4624 24.73C46.8035 25.1563 47.3152 25.3269 47.8268 25.3269C48.509 25.3269 49.0207 25.0711 49.3618 24.5594C49.7881 24.0478 49.9587 23.3656 49.9587 22.5128Z" fill="#FAFAFA"/>
<path d="M60.874 22.5128C60.874 23.8772 60.5329 24.9005 59.7654 25.7533C59.0832 26.4355 58.3157 26.7766 57.2924 26.7766C56.2691 26.7766 55.5016 26.4355 55.0753 25.668V29.8465H53.2845V21.319C53.2845 20.4662 53.2845 19.6135 53.1992 18.6754H54.7342L54.8194 19.9546C55.4164 19.0165 56.2691 18.5049 57.463 18.5049C58.401 18.5049 59.1685 18.846 59.7654 19.6135C60.5329 20.2957 60.874 21.2337 60.874 22.5128ZM59.0832 22.5128C59.0832 21.7453 58.9126 21.0631 58.5715 20.6368C58.2304 20.1251 57.7188 19.8693 57.0366 19.8693C56.6102 19.8693 56.1838 20.0398 55.8427 20.2957C55.5016 20.5515 55.2458 20.9779 55.1605 21.4042C55.0753 21.6601 55.0753 21.8306 55.0753 21.9159V23.2803C55.0753 23.8772 55.2458 24.3036 55.5869 24.73C55.928 25.1563 56.4397 25.3269 56.9513 25.3269C57.6335 25.3269 58.1452 25.0711 58.4863 24.5594C58.9126 24.0478 59.0832 23.3656 59.0832 22.5128Z" fill="#FAFAFA"/>
<path d="M71.1068 23.4504C71.1068 24.3884 70.7657 25.1559 70.1688 25.7528C69.4866 26.435 68.4633 26.6909 67.1842 26.6909C65.9903 26.6909 65.0523 26.435 64.3701 26.0087L64.7965 24.559C65.564 24.9854 66.4167 25.2412 67.3547 25.2412C68.0369 25.2412 68.5486 25.0706 68.8897 24.8148C69.2308 24.4737 69.4013 24.1326 69.4013 23.621C69.4013 23.1946 69.2308 22.7682 68.975 22.5124C68.6339 22.1713 68.1222 21.9155 67.44 21.6596C65.4787 20.9774 64.5407 19.8689 64.5407 18.5045C64.5407 17.5664 64.8818 16.8842 65.564 16.2873C66.2462 15.6904 67.0989 15.4346 68.2928 15.4346C69.3161 15.4346 70.0835 15.6051 70.7657 15.9462L70.3394 17.3959C69.7424 17.0548 69.0602 16.8842 68.2075 16.8842C67.6106 16.8842 67.0989 17.0548 66.7578 17.3106C66.502 17.5664 66.3314 17.9075 66.3314 18.3339C66.3314 18.7603 66.502 19.1014 66.8431 19.4425C67.0989 19.6983 67.6958 19.9541 68.4633 20.2952C69.4013 20.6363 70.0835 21.148 70.5952 21.6596C70.851 22.086 71.1068 22.6829 71.1068 23.4504Z" fill="#FAFAFA"/>
<path d="M76.9056 19.9546H74.9443V23.792C74.9443 24.73 75.2854 25.2417 75.9676 25.2417C76.3087 25.2417 76.5645 25.2417 76.735 25.1564L76.8203 26.5208C76.4792 26.6914 76.0528 26.6914 75.4559 26.6914C74.7737 26.6914 74.1768 26.5208 73.8357 26.0944C73.4093 25.6681 73.2388 24.9859 73.2388 23.9626V19.9546H72.0449V18.5902H73.2388V17.1406L74.9443 16.6289V18.5902H76.9056V19.9546Z" fill="#FAFAFA"/>
<path d="M85.6892 22.5121C85.6892 23.706 85.3481 24.7293 84.6659 25.4968C83.8985 26.2642 82.9604 26.6906 81.7666 26.6906C80.5727 26.6906 79.6347 26.2642 78.9525 25.4968C78.2703 24.7293 77.9292 23.7913 77.9292 22.5974C77.9292 21.4036 78.2703 20.3803 79.0378 19.6128C79.72 18.8453 80.7433 18.4189 81.9371 18.4189C83.131 18.4189 84.069 18.8453 84.7512 19.6128C85.3481 20.3803 85.6892 21.3183 85.6892 22.5121ZM83.8132 22.5974C83.8132 21.8299 83.6426 21.233 83.3015 20.7214C82.9604 20.1244 82.3635 19.7833 81.6813 19.7833C80.9991 19.7833 80.4022 20.1244 80.0611 20.7214C79.72 21.233 79.5494 21.9152 79.5494 22.5974C79.5494 23.3649 79.72 23.9618 80.0611 24.4735C80.4022 25.0704 80.9991 25.4115 81.6813 25.4115C82.3635 25.4115 82.8752 25.0704 83.3015 24.4735C83.6426 23.9618 83.8132 23.2796 83.8132 22.5974Z" fill="#FAFAFA"/>
<path d="M91.4022 20.1248C91.2317 20.1248 91.0611 20.0395 90.8053 20.0395C90.2084 20.0395 89.6967 20.2953 89.3556 20.7217C89.0998 21.1481 88.9293 21.6597 88.9293 22.2566V26.4351H87.1385V20.9775C87.1385 20.0395 87.1385 19.272 87.0532 18.5045H88.5882L88.6734 20.0395H88.7587C88.9293 19.5278 89.2704 19.1015 89.6115 18.7604C90.0378 18.5045 90.4642 18.334 90.8906 18.334C91.0611 18.334 91.2317 18.334 91.317 18.334L91.4022 20.1248Z" fill="#FAFAFA"/>
<path d="M99.2477 22.171C99.2477 22.5121 99.2477 22.768 99.1625 22.9385H93.8754C93.8754 23.706 94.1312 24.3029 94.6429 24.7293C95.0693 25.0704 95.6662 25.3262 96.3484 25.3262C97.1159 25.3262 97.8833 25.2409 98.4803 24.9851L98.7361 26.179C97.9686 26.5201 97.1159 26.6906 96.0926 26.6906C94.8987 26.6906 93.8754 26.3495 93.1932 25.582C92.511 24.8998 92.1699 23.8765 92.1699 22.6827C92.1699 21.4888 92.511 20.4655 93.1079 19.6981C93.7901 18.8453 94.7282 18.4189 95.922 18.4189C97.0306 18.4189 97.9686 18.8453 98.4803 19.6981C99.0772 20.3803 99.2477 21.233 99.2477 22.171ZM97.6275 21.7447C97.6275 21.233 97.5422 20.8066 97.2864 20.3803C96.9453 19.8686 96.5189 19.6128 95.922 19.6128C95.3251 19.6128 94.8987 19.8686 94.5576 20.295C94.3018 20.6361 94.1312 21.1477 94.046 21.6594H97.6275V21.7447Z" fill="#FAFAFA"/>
<path d="M38.8733 8.78286C38.8733 9.72088 38.6174 10.4884 38.0205 11C37.5089 11.4264 36.7414 11.6822 35.7181 11.6822C35.2064 11.6822 34.7801 11.6822 34.439 11.5969V6.30988C34.8653 6.22461 35.377 6.22461 35.9739 6.22461C36.9119 6.22461 37.5941 6.39516 38.1058 6.82153C38.5322 7.24791 38.8733 7.93011 38.8733 8.78286ZM37.9352 8.78286C37.9352 8.18593 37.7647 7.67428 37.4236 7.33318C37.0825 6.99208 36.5708 6.82153 35.9739 6.82153C35.7181 6.82153 35.4623 6.82153 35.2917 6.90681V10.9147C35.377 10.9147 35.6328 10.9147 35.8886 10.9147C36.5708 10.9147 37.0825 10.7442 37.4236 10.4031C37.7647 10.062 37.9352 9.46506 37.9352 8.78286Z" fill="#FAFAFA"/>
<path d="M43.6484 9.63644C43.6484 10.2334 43.4779 10.745 43.1368 11.0861C42.7957 11.5125 42.284 11.683 41.6871 11.683C41.0902 11.683 40.6638 11.5125 40.3227 11.0861C39.9816 10.745 39.811 10.2334 39.811 9.63644C39.811 9.03952 39.9816 8.52787 40.3227 8.18677C40.6638 7.76039 41.1754 7.58984 41.7724 7.58984C42.3693 7.58984 42.7957 7.76039 43.1368 8.18677C43.4779 8.52787 43.6484 9.03952 43.6484 9.63644ZM42.7957 9.63644C42.7957 9.29534 42.7104 8.95424 42.5398 8.69842C42.3693 8.35732 42.1135 8.27204 41.7724 8.27204C41.4313 8.27204 41.1754 8.44259 41.0049 8.69842C40.8343 8.95424 40.7491 9.29534 40.7491 9.63644C40.7491 9.97754 40.8343 10.3186 41.0049 10.5745C41.1754 10.9156 41.4313 11.0008 41.7724 11.0008C42.1135 11.0008 42.3693 10.8303 42.5398 10.4892C42.7104 10.3186 42.7957 9.97754 42.7957 9.63644Z" fill="#FAFAFA"/>
<path d="M50.2144 7.6748L49.0206 11.5975H48.2531L47.7414 9.89196C47.5709 9.46558 47.4856 9.03921 47.4003 8.61283C47.3151 9.03921 47.2298 9.46558 47.0592 9.89196L46.5476 11.5975H45.7801L44.501 7.6748H45.3537L45.7801 9.55085C45.8654 9.97723 45.9507 10.4036 46.0359 10.83C46.1212 10.4889 46.2065 10.0625 46.377 9.55085L46.8887 7.6748H47.5709L48.0825 9.46558C48.2531 9.89196 48.3384 10.3183 48.4236 10.7447C48.5089 10.3183 48.5942 9.89196 48.6795 9.46558L49.1911 7.6748H50.2144Z" fill="#FAFAFA"/>
<path d="M54.649 11.5971H53.7962V9.37996C53.7962 8.69776 53.5404 8.35666 53.0287 8.35666C52.7729 8.35666 52.6024 8.44193 52.4318 8.61248C52.2613 8.78303 52.176 9.03886 52.176 9.29468V11.5971H51.3232V8.78303C51.3232 8.44193 51.3232 8.10083 51.3232 7.67446H52.0907V8.27138C52.176 8.10083 52.3465 7.93028 52.5171 7.75973C52.7729 7.58918 53.0287 7.50391 53.2846 7.50391C53.6257 7.50391 53.9668 7.58918 54.2226 7.84501C54.5637 8.10083 54.649 8.52721 54.649 9.12413V11.5971Z" fill="#FAFAFA"/>
<path d="M57.0368 11.5972H56.1841V5.88379H57.0368V11.5972Z" fill="#FAFAFA"/>
<path d="M62.1533 9.63644C62.1533 10.2334 61.9827 10.745 61.6416 11.0861C61.3005 11.5125 60.7889 11.683 60.192 11.683C59.595 11.683 59.1687 11.5125 58.8276 11.0861C58.4865 10.745 58.3159 10.2334 58.3159 9.63644C58.3159 9.03952 58.4865 8.52787 58.8276 8.18677C59.1687 7.84567 59.6803 7.58984 60.2772 7.58984C60.8742 7.58984 61.3005 7.76039 61.6416 8.18677C61.9827 8.52787 62.1533 9.03952 62.1533 9.63644ZM61.3005 9.63644C61.3005 9.29534 61.2153 8.95424 61.0447 8.69842C60.8742 8.35732 60.6183 8.27204 60.2772 8.27204C59.9361 8.27204 59.6803 8.44259 59.5098 8.69842C59.3392 8.95424 59.2539 9.29534 59.2539 9.63644C59.2539 9.97754 59.3392 10.3186 59.5098 10.5745C59.6803 10.9156 59.9361 11.0008 60.2772 11.0008C60.6183 11.0008 60.8742 10.8303 61.0447 10.4892C61.2153 10.3186 61.3005 9.97754 61.3005 9.63644Z" fill="#FAFAFA"/>
<path d="M66.3314 11.5978H65.564L65.4787 11.1714C65.2229 11.5125 64.7965 11.683 64.3701 11.683C64.029 11.683 63.6879 11.5978 63.5174 11.3419C63.3468 11.0861 63.1763 10.8303 63.1763 10.5745C63.1763 10.0628 63.3468 9.72172 63.7732 9.46589C64.1996 9.21007 64.7112 9.12479 65.4787 9.12479V9.03952C65.4787 8.52787 65.2229 8.27204 64.7112 8.27204C64.2848 8.27204 64.029 8.35732 63.6879 8.52787L63.5174 7.93094C63.8585 7.67512 64.2848 7.58984 64.8818 7.58984C65.9051 7.58984 66.4167 8.10149 66.4167 9.21007V10.6597C66.3314 11.0861 66.3314 11.3419 66.3314 11.5978ZM65.4787 10.2334V9.63644C64.5407 9.63644 64.029 9.89227 64.029 10.4039C64.029 10.5745 64.1143 10.745 64.1996 10.8303C64.2848 10.9156 64.4554 11.0008 64.6259 11.0008C64.7965 11.0008 64.967 10.9156 65.1376 10.8303C65.3081 10.745 65.3934 10.5745 65.4787 10.4039C65.4787 10.4039 65.4787 10.3186 65.4787 10.2334Z" fill="#FAFAFA"/>
<path d="M71.2777 11.5979H70.5102V11.001C70.2544 11.5126 69.828 11.6832 69.2311 11.6832C68.7194 11.6832 68.3783 11.5126 68.0372 11.1715C67.6961 10.8304 67.6108 10.3188 67.6108 9.72183C67.6108 9.1249 67.7814 8.61325 68.1225 8.18688C68.4636 7.84578 68.89 7.67523 69.3163 7.67523C69.828 7.67523 70.1691 7.84578 70.4249 8.18688V5.96973H71.2777V10.5746C71.2777 10.9157 71.2777 11.2568 71.2777 11.5979ZM70.4249 9.97765V9.29545C70.4249 9.21018 70.4249 9.1249 70.4249 9.03963C70.3396 8.86908 70.2544 8.69853 70.0838 8.52798C69.9133 8.35743 69.7427 8.35743 69.4869 8.35743C69.1458 8.35743 68.89 8.52798 68.7194 8.7838C68.5489 9.03963 68.4636 9.38073 68.4636 9.8071C68.4636 10.2335 68.5489 10.4893 68.7194 10.7451C68.89 11.001 69.1458 11.1715 69.4869 11.1715C69.7427 11.1715 69.9985 11.0862 70.1691 10.8304C70.3396 10.4893 70.4249 10.2335 70.4249 9.97765Z" fill="#FAFAFA"/>
<path d="M78.6963 9.63644C78.6963 10.2334 78.5257 10.745 78.1846 11.0861C77.8435 11.5125 77.3319 11.683 76.7349 11.683C76.138 11.683 75.7116 11.5125 75.3705 11.0861C75.0294 10.745 74.8589 10.2334 74.8589 9.63644C74.8589 9.03952 75.0294 8.52787 75.3705 8.18677C75.7116 7.76039 76.2233 7.58984 76.8202 7.58984C77.4171 7.58984 77.8435 7.76039 78.1846 8.18677C78.5257 8.52787 78.6963 9.03952 78.6963 9.63644ZM77.7582 9.63644C77.7582 9.29534 77.673 8.95424 77.5024 8.69842C77.3319 8.35732 77.076 8.27204 76.7349 8.27204C76.3938 8.27204 76.138 8.44259 75.9675 8.69842C75.7969 8.95424 75.7116 9.29534 75.7116 9.63644C75.7116 9.97754 75.7969 10.3186 75.9675 10.5745C76.138 10.9156 76.3938 11.0008 76.7349 11.0008C77.076 11.0008 77.3319 10.8303 77.5024 10.4892C77.673 10.3186 77.7582 9.97754 77.7582 9.63644Z" fill="#FAFAFA"/>
<path d="M83.3868 11.5971H82.534V9.37996C82.534 8.69776 82.2782 8.35666 81.7665 8.35666C81.5107 8.35666 81.3402 8.44193 81.1696 8.61248C80.9991 8.78303 80.9138 9.03886 80.9138 9.29468V11.5971H80.061V8.78303C80.061 8.44193 80.061 8.10083 80.061 7.67446H80.8285V8.27138C80.9138 8.10083 81.0843 7.93028 81.2549 7.75973C81.5107 7.58918 81.7665 7.50391 82.0224 7.50391C82.3635 7.50391 82.7046 7.58918 82.9604 7.84501C83.3015 8.10083 83.3868 8.52721 83.3868 9.12413V11.5971Z" fill="#FAFAFA"/>
<path d="M89.1852 8.35655H88.2472V10.2326C88.2472 10.7443 88.4178 10.9148 88.7589 10.9148C88.9294 10.9148 89.0147 10.9148 89.1852 10.9148V11.597C89.0147 11.6823 88.7589 11.6823 88.503 11.6823C88.1619 11.6823 87.9061 11.597 87.7356 11.3412C87.565 11.1706 87.4797 10.7443 87.4797 10.3179V8.35655H86.8828V7.67435H87.4797V6.99215L88.3325 6.73633V7.67435H89.2705V8.35655H89.1852Z" fill="#FAFAFA"/>
<path d="M93.7901 11.5972H92.9373V9.38006C92.9373 8.69786 92.6815 8.35676 92.1699 8.35676C91.7435 8.35676 91.4877 8.52731 91.3171 8.95369C91.3171 9.03896 91.3171 9.12424 91.3171 9.29479V11.5972H90.4644V5.88379H91.3171V8.27149C91.5729 7.84511 91.9993 7.58929 92.511 7.58929C92.8521 7.58929 93.1932 7.67456 93.3637 7.93039C93.6195 8.18621 93.7901 8.69786 93.7901 9.20951V11.5972Z" fill="#FAFAFA"/>
<path d="M98.4803 9.46558C98.4803 9.63613 98.4803 9.72141 98.4803 9.89196H95.9221C95.9221 10.3183 96.0926 10.5742 96.2632 10.7447C96.519 10.9153 96.7748 11.0005 97.1159 11.0005C97.5423 11.0005 97.8834 10.9153 98.1392 10.83L98.3098 11.4269C97.9687 11.5975 97.5423 11.6827 97.0307 11.6827C96.4337 11.6827 95.9221 11.5122 95.581 11.1711C95.2399 10.83 95.0693 10.3183 95.0693 9.7214C95.0693 9.12448 95.2399 8.61283 95.581 8.27173C95.9221 7.84535 96.3485 7.6748 96.9454 7.6748C97.5423 7.6748 97.9687 7.84535 98.2245 8.27173C98.3951 8.52755 98.4803 8.95393 98.4803 9.46558ZM97.7129 9.20975C97.7129 8.95393 97.6276 8.6981 97.5423 8.52755C97.3718 8.27173 97.2012 8.18646 96.8601 8.18646C96.6043 8.18646 96.3485 8.27173 96.1779 8.52755C96.0074 8.6981 95.9221 8.95393 95.9221 9.20975H97.7129Z" fill="#FAFAFA"/>
</g>
</g>
</g>
<defs>
<clipPath id="clip0_4442_3382">
<rect width="109.16" height="34.11" fill="white" transform="translate(0.154297)"/>
</clipPath>
<clipPath id="clip1_4442_3382">
<rect width="109.16" height="34.11" fill="white" transform="translate(0.154297)"/>
</clipPath>
<clipPath id="clip2_4442_3382">
<rect width="109.152" height="34.11" fill="white" transform="translate(0.158203)"/>
</clipPath>
</defs>
</svg>
