<svg width="110" height="35" viewBox="0 0 110 35" fill="none" xmlns="http://www.w3.org/2000/svg">
<g clip-path="url(#clip0_4442_3349)">
<path d="M105.741 34.11H3.411C1.53495 34.11 0 32.5751 0 30.699V3.411C0 1.53495 1.53495 0 3.411 0H105.741C107.617 0 109.152 1.53495 109.152 3.411V30.699C109.152 32.5751 107.617 34.11 105.741 34.11Z" fill="black"/>
<path fill-rule="evenodd" clip-rule="evenodd" d="M8.35693 16.7142V7.76029C8.35693 7.24864 8.78331 6.82227 9.20968 6.82227C9.63606 6.82227 9.80661 6.90754 10.0624 7.07809L26.5205 16.1172C26.8616 16.2878 27.0322 16.5436 27.0322 16.7994C27.0322 17.0553 26.8616 17.3111 26.5205 17.4816L10.0624 26.5208C9.89188 26.6061 9.63606 26.7766 9.20968 26.7766C8.78331 26.7766 8.35693 26.3502 8.35693 25.8386V16.7142Z" fill="url(#paint0_linear_4442_3349)"/>
<path fill-rule="evenodd" clip-rule="evenodd" d="M19.0162 16.7994L9.03906 6.82227C9.12434 6.82227 9.12434 6.82227 9.20961 6.82227C9.63599 6.82227 9.80654 6.90754 10.0624 7.07809L22.1714 13.7295L19.0162 16.7994Z" fill="url(#paint1_linear_4442_3349)"/>
<path fill-rule="evenodd" clip-rule="evenodd" d="M22.086 19.7837L19.0161 16.7138L22.1713 13.5586L26.5203 15.9463C26.8614 16.1168 27.032 16.3727 27.032 16.6285C27.032 16.8843 26.8614 17.1401 26.5203 17.3107L22.086 19.7837Z" fill="url(#paint2_linear_4442_3349)"/>
<path fill-rule="evenodd" clip-rule="evenodd" d="M9.12451 26.6058L19.0164 16.7139L22.0863 19.7838L10.0625 26.3499C9.80671 26.5205 9.63616 26.6058 9.12451 26.6058C9.20979 26.6058 9.20979 26.6058 9.12451 26.6058Z" fill="url(#paint3_linear_4442_3349)"/>
<path fill-rule="evenodd" clip-rule="evenodd" d="M60.6307 28.9083C60.2043 28.5672 59.8632 27.9703 59.6927 27.6292L61.0571 27.0323C61.1423 27.2028 61.3129 27.4587 61.4834 27.7145C61.8245 28.0556 62.3362 28.3967 62.8478 28.3967C63.3595 28.3967 63.9564 28.1409 64.2975 27.7145C64.5533 27.2881 64.7239 26.8617 64.7239 26.2648V25.7532C63.7006 27.0323 61.5687 26.8617 60.3749 25.4973C59.0957 24.1329 59.0957 21.8305 60.3749 20.4661C61.654 19.187 63.53 19.0164 64.6386 20.2103V19.6134H66.0883V26.009C66.0883 27.6292 65.4914 28.5672 64.7239 29.1642C64.2122 29.5905 63.4448 29.7611 62.7626 29.7611C61.9951 29.6758 61.2276 29.42 60.6307 28.9083ZM96.3609 29.2494L97.8106 25.8384L95.2523 19.9545H96.702L98.4928 24.1329L100.284 19.9545H101.733L97.8106 29.2494H96.3609ZM89.4536 26.009C89.0273 25.5826 88.8567 24.9857 88.8567 24.3888C88.8567 23.8771 89.0273 23.3655 89.3684 23.0244C89.9653 22.4274 90.818 22.1716 91.7561 22.1716C92.353 22.1716 92.8646 22.2569 93.291 22.5127C93.291 21.4894 92.4383 21.063 91.7561 21.063C91.1591 21.063 90.5622 21.4041 90.3064 22.0011L89.0273 21.4894C89.2831 20.8925 89.9653 19.7839 91.6708 19.7839C92.5235 19.7839 93.3763 20.0397 93.8879 20.6367C94.3996 21.2336 94.5701 21.9158 94.5701 22.8538V26.4354H93.1205V25.8384C92.9499 26.0943 92.6088 26.2648 92.353 26.4354C92.0119 26.6059 91.5855 26.6912 91.1591 26.6912C90.6475 26.6059 89.88 26.4354 89.4536 26.009ZM44.0021 22.9391C44.0021 21.2336 45.2812 19.3575 47.5836 19.3575C49.8008 19.3575 51.1652 21.2336 51.1652 22.9391C51.1652 24.6446 49.886 26.5206 47.5836 26.5206C45.2812 26.5206 44.0021 24.6446 44.0021 22.9391ZM51.6768 22.9391C51.6768 21.2336 52.9559 19.3575 55.2584 19.3575C57.4755 19.3575 58.8399 21.2336 58.8399 22.9391C58.8399 24.6446 57.5608 26.5206 55.2584 26.5206C53.0412 26.5206 51.6768 24.6446 51.6768 22.9391ZM34.366 24.8151C32.2341 22.6833 32.3194 19.187 34.4513 16.9698C35.5598 15.8613 36.9242 15.3496 38.3739 15.3496C39.7383 15.3496 41.1027 15.8613 42.126 16.8846L41.1027 17.9931C39.5678 16.4582 37.0948 16.5435 35.6451 18.0784C34.1102 19.6986 34.1102 22.1716 35.6451 23.7918C37.1801 25.4121 39.7383 25.4973 41.2733 23.8771C41.7849 23.3655 41.9555 22.6833 42.0407 22.0011H38.4592V20.4661H43.4904C43.5757 20.8072 43.5757 21.2336 43.5757 21.66C43.5757 22.9391 43.064 24.2182 42.2113 25.071C41.2733 26.009 39.9089 26.5206 38.5445 26.5206C37.0095 26.4354 35.4746 25.9237 34.366 24.8151ZM70.4373 25.4121C69.1582 24.0477 69.1582 21.7452 70.4373 20.2956C71.7164 18.9312 73.8483 18.9312 75.0422 20.2956C75.4685 20.7219 75.7244 21.3189 75.9802 21.9158L71.2901 23.8771C71.5459 24.474 72.1428 24.9857 72.9956 24.9857C73.763 24.9857 74.2747 24.7299 74.7863 23.9624L76.0655 24.8151C75.8949 24.9857 75.7244 25.1562 75.6391 25.3268C74.1894 26.7765 71.7164 26.7765 70.4373 25.4121ZM79.3059 26.4354V16.9698H82.3758C84.1666 16.9698 85.6163 18.249 85.6163 19.7839C85.6163 21.3189 84.3371 22.598 82.7169 22.598H80.8409V26.3501L79.3059 26.4354ZM86.469 26.4354V16.9698H87.9187V26.4354H86.469ZM67.1969 26.2648V15.6907H68.7318V26.2648H67.1969ZM93.2057 23.6213C92.8646 23.3655 92.353 23.2802 91.8413 23.2802C90.818 23.2802 90.2211 23.7918 90.2211 24.3888C90.2211 24.9857 90.818 25.3268 91.415 25.3268C92.2677 25.3268 93.2057 24.6446 93.2057 23.6213ZM49.5449 22.9391C49.5449 21.9158 48.8627 20.8072 47.5836 20.8072C46.3045 20.8072 45.6223 21.9158 45.6223 22.9391C45.6223 23.9624 46.3045 25.071 47.5836 25.071C48.7775 25.071 49.5449 23.9624 49.5449 22.9391ZM57.2197 22.9391C57.2197 21.9158 56.5375 20.8072 55.2584 20.8072C53.9792 20.8072 53.297 21.9158 53.297 22.9391C53.297 23.9624 53.9792 25.071 55.2584 25.071C56.5375 25.071 57.2197 23.9624 57.2197 22.9391ZM64.8092 23.536C64.8092 23.4507 64.8092 23.3655 64.8944 23.2802C64.8944 23.1949 64.8944 23.0244 64.8944 22.9391C64.8944 22.8538 64.8944 22.6833 64.8944 22.598V22.5127C64.8944 22.4274 64.8092 22.2569 64.8092 22.1716C64.5533 21.3189 63.7859 20.7219 63.0184 20.7219C61.9951 20.7219 61.1423 21.7452 61.1423 22.8538C61.1423 24.0477 61.9951 24.9857 63.1037 24.9857C63.7859 25.071 64.4681 24.474 64.8092 23.536ZM71.0342 22.7685L74.1894 21.4041C73.8483 20.8072 73.3367 20.6367 72.9103 20.6367C71.6312 20.7219 70.8637 22.0863 71.0342 22.7685ZM84.0813 19.8692C84.0813 19.0164 83.3991 18.4195 82.4611 18.4195H80.7556V21.4041H82.5464C83.3991 21.4041 84.0813 20.7219 84.0813 19.8692Z" fill="#FAFAFA"/>
<path fill-rule="evenodd" clip-rule="evenodd" d="M97.4696 27.5443H97.3843V27.459H97.4696H97.3843V27.5443H97.4696Z" fill="#FAFAFA"/>
<path fill-rule="evenodd" clip-rule="evenodd" d="M97.6396 27.5443C97.6396 27.459 97.6396 27.459 97.6396 27.5443C97.5544 27.459 97.5544 27.459 97.6396 27.5443C97.5544 27.5443 97.5544 27.5443 97.6396 27.5443ZM97.6396 27.459C97.6396 27.5443 97.6396 27.5443 97.6396 27.459C97.5544 27.5443 97.6396 27.5443 97.6396 27.459Z" fill="#FAFAFA"/>
<path fill-rule="evenodd" clip-rule="evenodd" d="M97.7249 27.459H97.6396H97.7249V27.5443V27.459Z" fill="#FAFAFA"/>
<path d="M33.1719 8.61262C33.1719 7.07767 34.2804 6.13965 35.6448 6.13965C36.5829 6.13965 37.1798 6.56602 37.6062 7.16295L36.924 7.58932C36.6681 7.24822 36.2418 6.9924 35.6448 6.9924C34.7068 6.9924 34.0246 7.6746 34.0246 8.6979C34.0246 9.7212 34.7068 10.4034 35.6448 10.4034C36.1565 10.4034 36.5829 10.1476 36.7534 9.97702V9.20955H35.389V8.44207H37.6914V10.2328C37.2651 10.7445 36.5829 11.0856 35.7301 11.0856C34.2804 11.0856 33.1719 10.0623 33.1719 8.61262Z" fill="#FAFAFA"/>
<path d="M38.7148 11V6.22461H41.9553V6.99208H39.4823V8.18593H41.87V8.95341H39.4823V10.3178H41.9553V11.0853L38.7148 11Z" fill="#FAFAFA"/>
<path d="M44.3432 11V6.99208H42.8936V6.22461H46.6457V6.99208H45.196V11H44.3432Z" fill="#FAFAFA"/>
<path d="M49.5449 11V6.22461H50.3977V11H49.5449Z" fill="#FAFAFA"/>
<path d="M52.7002 11V6.99208H51.2505V6.22461H55.0026V6.99208H53.5529V11H52.7002Z" fill="#FAFAFA"/>
<path d="M57.731 8.61262C57.731 7.16295 58.7543 6.13965 60.2039 6.13965C61.6536 6.13965 62.6769 7.16295 62.6769 8.61262C62.6769 10.0623 61.6536 11.0856 60.2039 11.0856C58.7543 11.0856 57.731 9.97702 57.731 8.61262ZM61.7389 8.61262C61.7389 7.58932 61.142 6.90712 60.1187 6.90712C59.1806 6.90712 58.4984 7.6746 58.4984 8.61262C58.4984 9.63592 59.0954 10.3181 60.1187 10.3181C61.142 10.3181 61.7389 9.55065 61.7389 8.61262Z" fill="#FAFAFA"/>
<path d="M66.941 11L64.468 7.58901V11H63.6152V6.22461H64.468L66.941 9.55033V6.22461H67.7937V11H66.941Z" fill="#FAFAFA"/>
</g>
<defs>
<linearGradient id="paint0_linear_4442_3349" x1="13.8639" y1="5.60786" x2="18.6378" y2="25.2134" gradientUnits="userSpaceOnUse">
<stop stop-color="#006884"/>
<stop offset="1" stop-color="#8AD1D0"/>
</linearGradient>
<linearGradient id="paint1_linear_4442_3349" x1="8.03819" y1="8.41725" x2="21.0477" y2="15.4503" gradientUnits="userSpaceOnUse">
<stop stop-color="#24BBB6"/>
<stop offset="1" stop-color="#DBE692"/>
</linearGradient>
<linearGradient id="paint2_linear_4442_3349" x1="23.024" y1="20.1419" x2="23.024" y2="13.3639" gradientUnits="userSpaceOnUse">
<stop stop-color="#FCC072"/>
<stop offset="1" stop-color="#F58A5B"/>
</linearGradient>
<linearGradient id="paint3_linear_4442_3349" x1="10.5444" y1="28.3454" x2="20.8215" y2="17.8862" gradientUnits="userSpaceOnUse">
<stop stop-color="#712B8F"/>
<stop offset="1" stop-color="#EA1D27"/>
</linearGradient>
<clipPath id="clip0_4442_3349">
<rect width="109.152" height="34.11" fill="white"/>
</clipPath>
</defs>
</svg>
